<?xml version="1.0" encoding="UTF-8" standalone="no"?>
<!-- Created with Inkscape (http://www.inkscape.org/) -->

<svg
   xmlns:dc="http://purl.org/dc/elements/1.1/"
   xmlns:cc="http://creativecommons.org/ns#"
   xmlns:rdf="http://www.w3.org/1999/02/22-rdf-syntax-ns#"
   xmlns:svg="http://www.w3.org/2000/svg"
   xmlns="http://www.w3.org/2000/svg"
   xmlns:sodipodi="http://sodipodi.sourceforge.net/DTD/sodipodi-0.dtd"
   xmlns:inkscape="http://www.inkscape.org/namespaces/inkscape"
   id="svg2"
   version="1.1"
   inkscape:version="0.48.0 r9654"
   width="266.12506"
   height="1068.5311"
   xml:space="preserve"
   sodipodi:docname="logo.svg"><metadata
     id="metadata8"><rdf:RDF><cc:Work
         rdf:about=""><dc:format>image/svg+xml</dc:format><dc:type
           rdf:resource="http://purl.org/dc/dcmitype/StillImage" /><dc:title></dc:title></cc:Work></rdf:RDF></metadata><defs
     id="defs6"><clipPath
       clipPathUnits="userSpaceOnUse"
       id="clipPath16"><path
         d="m 0,595.276 841.89,0 L 841.89,0 0,0 0,595.276 z"
         id="path18"
         inkscape:connector-curvature="0" /></clipPath></defs><sodipodi:namedview
     pagecolor="#ffffff"
     bordercolor="#666666"
     borderopacity="1"
     objecttolerance="10"
     gridtolerance="10"
     guidetolerance="10"
     inkscape:pageopacity="0"
     inkscape:pageshadow="2"
     inkscape:window-width="1521"
     inkscape:window-height="1042"
     id="namedview4"
     showgrid="false"
     inkscape:zoom="1"
     inkscape:cx="264.44692"
     inkscape:cy="529.48781"
     inkscape:window-x="660"
     inkscape:window-y="322"
     inkscape:window-maximized="0"
     inkscape:current-layer="g12"
     fit-margin-top="10"
     fit-margin-left="10"
     fit-margin-right="10"
     fit-margin-bottom="10" /><g
     id="g10"
     inkscape:groupmode="layer"
     inkscape:label="nodelogo"
     transform="matrix(1.25,0,0,-1.25,-393.12473,659.26801)"><g
       id="g12"
       transform="translate(-0.96575586,-380.41503)"><path
         style="fill:#727c25;fill-opacity:1;fill-rule:nonzero;stroke:none"
         d="m 520.36554,285.45444 c 0,9.056 -5.91,12.275 -10.975,12.275 l -3.95,0 c -5.002,0 -9.039,-3.282 -10.5,-8.525 -0.011,-0.041 -0.039,-0.158 -0.05,-0.2 -0.934,-3.856 -1.958,-7.923 -3.05,-12.05 -0.63,-2.391 -1.277,-4.881 -1.9,-7.425 l -111.35,0 c -6.939,0 -12.03,1.389 -14.7,4 -0.764,0.749 -1.436,1.752 -2.025,3 -0.447,0.947 -1.298,1.67 -2.3,1.975 -1.003,0.308 -2.074,0.186 -2.975,-0.35 -2.984,-1.774 -6.375,-2.725 -9.825,-2.725 -5.393,0 -10.58,2.272 -14.2,6.225 -1.068,1.166 -2.745,1.548 -4.2,0.925 -1.374,-0.589 -2.275,-1.944 -2.275,-3.425 0,-0.084 0.019,-0.165 0.025,-0.25 1.081,-15.61 5.267,-27.842 12.45,-36.325 8.735,-10.299 21.452,-15.5 37.8,-15.5 l 114.4,0 4.225,-14.1 c 1.097,-3.567 3.399,-5.384 5.15,-6.3 1.812,-0.927 3.546,-1.375 5.3,-1.375 l 3.95,0 c 2.99904,0 5.69704,1.155 7.82504,3.35 2.09,2.175 3.15,5.044 3.15,8.575 l 0,68.225 z m -0.05,-135.95 c 0,19.319 -4.335,35.158 -12.9,47.075 -9.058,12.604 -21.541,19 -37.125,19 l -12.375,0 c -9.812,0 -17.989,-2.315 -24.325,-6.875 -6.064,-4.358 -11.007,-10.214 -14.675,-17.475 -3.205,-6.686 -5.64,-14.266 -7.225,-22.5 -1.507,-7.795 -2.83,-15.286 -3.975,-22.3 -0.955,-5.973 -2.035,-11.852 -3.175,-17.475 -1.05,-5.138 -2.467,-9.71 -4.225,-13.6 -1.549,-3.427 -3.528,-6.198 -5.875,-8.2 -1.917,-1.631 -4.385,-2.375 -7.75,-2.375 l -10.125,0 c -6.398,0 -10.938,1.932 -14.275,6.1 -3.595,4.489 -5.4,11.459 -5.4,20.7 0,13.971 2.584,25.111 7.7,33.125 4.619,7.256 10.46,10.625 18.4,10.625 l 7.675,0 c 5.065,0 10.975,3.207 10.975,12.175 l 0.25,16.75 c 0,9.054 -5.91,12.275 -10.975,12.275 l -54.175,0 c -5.065,0 -10.975,-3.221 -10.975,-12.275 l 0,-4.475 c 0,-2.203 0.573,-4.376 1.7,-6.475 1.298,-2.389 3.243,-4.2 5.6,-5.225 l 0.25,-0.125 c 0.214,-0.093 0.422,-0.148 0.65,-0.2 l 0.25,-0.075 c 0.422,-0.1 0.842,-0.186 1.25,-0.3 -3.709,-6.488 -6.457,-13.782 -8.175,-21.7 -2.318,-10.658 -3.5,-23.419 -3.5,-37.95 0,-19.987 4.459,-36.11892 13.225,-47.95004 9.223,-12.44496 22.187,-18.77488 38.55,-18.77488 l 13.35,0 c 10.323,0 18.871,2.43992 25.4,7.24992 6.184,4.566 11.237,10.59208 15,17.9 3.579,6.958 6.198,14.745 7.8,23.15 1.49,7.848 2.851,15.653 4.025,23.25 0.801,5.81696 1.73,11.50896 2.775,16.92496 0.978,5.068 2.257,9.512 3.8,13.225 1.326,3.188 3.001,5.683 5,7.425 1.559,1.37 3.597,2 6.425,2 l 10.4,0 c 5.499,0 9.531,-1.899 12.7,-6 3.482,-4.507 5.25,-11.177 5.25,-19.825 0,-13.295 -2.446,-23.785 -7.275,-31.15 -4.37,-6.654 -10.21,-9.75 -18.35,-9.75 l -7.9,0 c -3.349,0 -6.416,-1.635 -8.4,-4.5 -1.53,-2.19996 -2.35,-4.86004 -2.35,-7.65004 l -0.225,-16.44992 c 0,-9.05704 5.774,-12.27504 10.725,-12.27504 l 53.65,0 c 5.065,0 10.975,3.218 10.975,12.27504 l 0,4.5 c 0,2.22096 -0.575,4.37792 -1.7,6.44992 -1.305,2.41104 -3.243,4.23808 -5.6,5.25008 l -0.175,0.0752 c -0.145,0.0632 -0.299,0.104 -0.45,0.15 l -0.2,0.0752 c -0.38,0.11 -0.754,0.22896 -1.15,0.34992 3.164,6.41664 5.684,13.61264 7.5,21.47464 2.496,10.822 3.75,22.396 3.75,34.375 z"
         id="path30"
         inkscape:connector-curvature="0" /><path
         style="fill:#b9c949;fill-opacity:1;fill-rule:nonzero;stroke:none"
         d="m 516.64054,285.45444 c 0,7.932 -5.545,8.55 -7.25,8.55 l -3.95,0 c -3.353,0 -5.875,-2.101 -6.9,-5.775 l -0.025,-0.075 0,-0.025 c -0.947,-3.895 -1.981,-7.983 -3.075,-12.125 -0.864,-3.264 -1.715,-6.688 -2.55,-10.2 l -114.3,0 c -8.042,0 -13.868,1.721 -17.3,5.075 -1.122,1.1 -2.044,2.472 -2.8,4.075 -3.432,-2.041 -7.431,-3.225 -11.725,-3.225 -6.717,0 -12.771,2.861 -16.95,7.425 1.025,-14.793 4.921,-26.264 11.6,-34.15 7.992,-9.425 19.747,-14.225 34.95,-14.225 l 117.175,0 5.025,-16.7 c 0.723,-2.346 2.154,-3.528 3.25,-4.1 1.275,-0.655 2.474,-0.975 3.625,-0.975 l 3.95,0 c 1.967,0 3.747,0.778 5.15,2.225 1.401,1.453 2.1,3.488 2.1,6.025 l 0,68.2 z m -0.05,-135.95 c 0,18.518 -4.098,33.625 -12.2,44.9 -8.32,11.577 -19.782,17.45 -34.1,17.45 l -12.375,0 c -9.015,0 -16.485,-2.079 -22.175,-6.175 -5.575,-4.006 -10.079,-9.403 -13.45,-16.075 -3.069,-6.398 -5.395,-13.654 -6.925,-21.575 -1.5,-7.775 -2.837,-15.247 -3.975,-22.2 -0.967,-6.058 -2.054,-11.979 -3.2,-17.625 -1.105,-5.408 -2.604,-10.255 -4.475,-14.4 -1.774,-3.929 -4.078,-7.112 -6.85,-9.475 -2.591,-2.205 -5.933,-3.275 -10.175,-3.275 l -10.125,0 c -7.514,0 -13.137,2.452 -17.175,7.5 -4.14,5.167 -6.225,12.894 -6.225,23 0,14.696 2.777,26.527 8.275,35.15 5.298,8.313 12.347,12.35 21.55,12.35 l 7.675,0 c 1.703,0 7.25,0.616 7.25,8.5 l 0.25,16.7 c 0,7.927 -5.549,8.55 -7.25,8.55 l -54.15,0 c -1.702,0 -7.275,-0.623 -7.275,-8.55 l 0,-4.475 c 0,-1.583 0.421,-3.156 1.25,-4.7 0.911,-1.677 2.204,-2.895 3.825,-3.6 l 0.25,-0.1 0.25,-0.075 c 1.64,-0.388 3.202,-0.865 4.625,-1.45 0.44,-0.177 0.891,-0.371 1.35,-0.55 -4.732,-7.07 -8.115,-15.249 -10.1,-24.4 -2.264,-10.411 -3.425,-22.92 -3.425,-37.175 0,-19.173 4.216,-34.57104 12.5,-45.75 8.481,-11.44496 20.432,-17.25 35.55,-17.25 l 13.35,0 c 9.512,0 17.331,2.202 23.2,6.52496 5.719,4.22208 10.375,9.80504 13.875,16.6 3.42,6.64304 5.941,14.10204 7.475,22.15004 1.478,7.783 2.809,15.513 3.975,23.05 0.817,5.923 1.773,11.684 2.825,17.125 1.023,5.303 2.378,10.013 4.025,13.975 1.541,3.708 3.544,6.655 5.975,8.775 2.249,1.973 5.143,2.925 8.875,2.925 l 10.4,0 c 6.653,0 11.773,-2.429 15.65,-7.45 3.998,-5.174 6.025,-12.609 6.025,-22.1 0,-14.032 -2.665,-25.217 -7.9,-33.2 -5.051,-7.69 -12.069,-11.425 -21.45,-11.425 l -7.9,0 c -2.142,0 -4.056,-1.027 -5.35,-2.9 -1.113,-1.59704 -1.675,-3.50296 -1.675,-5.6 l -0.25,-16.37496 c 0,-7.93008 5.381,-8.55008 7.025,-8.55008 l 53.65,0 c 1.701,0 7.25,0.62008 7.25,8.55008 l 0,4.5 c 0,1.588 -0.398,3.14696 -1.225,4.67496 -0.916,1.69096 -2.221,2.92504 -3.85,3.62504 l -0.175,0.075 -0.175,0.05 c -1.445,0.41704 -2.925,0.896 -4.425,1.4 -0.349,0.118 -0.704,0.22104 -1.05,0.35 3.996,7.05704 7.097,15.288 9.225,24.5 2.43,10.55 3.65,21.822 3.65,33.525 z"
         id="path42"
         inkscape:connector-curvature="0" /><path
         style="fill:#e3e3e3;fill-opacity:1;fill-rule:nonzero;stroke:none"
         d="m 519.04054,519.50444 c 0,7.037 -4.369,9.55 -8.475,9.55 l -4.05,0 c -1.445,0 -3.554,-0.443 -5.4,-2.5 -1.011,-1.111 -1.782,-2.341 -2.3,-3.65 l -0.05,-0.175 -0.05,-0.15 c -1.017,-3.418 -2.086,-6.873 -3.15,-10.275 -0.756,-2.414 -1.515,-4.905 -2.275,-7.425 l -17.875,0 c 2.613,5.154 4.655,10.798 6.075,16.875 1.997,8.538 3,17.097 3,25.425 0,10.047 -1.688,19.081 -5,26.875 -3.347,7.863 -8.161,14.579 -14.325,19.95 -6.127,5.341 -13.602,9.414 -22.2,12.125 -1.004,0.316 -2.014,0.621 -3.05,0.9 1.053,0.295 2.08,0.615 3.1,0.95 8.613,2.834 16.108,7.16 22.25,12.85 6.138,5.692 10.923,12.695 14.25,20.85 3.296,8.094 4.975,17.505 4.975,27.95 l 0,15.275 c 0,10.459 -1.672,19.812 -4.975,27.8 -3.331,8.053 -8.121,14.995 -14.25,20.675 -6.14,5.694 -13.637,10.023 -22.25,12.85 -4.976,1.636 -10.352,2.796 -16.075,3.475 l 6.425,0 c 16.198,0 28.9,4.292 37.75,12.775 8.877,8.513 13.375,21.439 13.375,38.425 0,8.296 -0.825,16.395 -2.475,24.075 -1.183,5.494 -2.954,10.605 -5.25,15.275 1.102,0.422 2.118,1.088 3,1.975 1.629,1.646 2.45,3.899 2.45,6.7 l 0,41.675 c 0,2.813 -0.824,5.066 -2.45,6.7 -1.636,1.65 -3.711,2.525 -6.025,2.525 l -3.8,0 c -1.446,0 -3.553,-0.446 -5.4,-2.5 -0.915,-1.006 -1.593,-1.94 -2.1,-2.9 l -0.175,-0.325 -0.1,-0.325 c -1.183,-3.612 -2.332,-7.106 -3.425,-10.5 -0.777,-2.403 -1.488,-4.851 -2.15,-7.3 l -103.025,0 -4.95,17.325 -0.05,0.2 -0.075,0.2 c -1.469,3.692 -4.366,5.8 -7.95,5.8 l -3.8,0 c -2.322,0 -4.403,-0.86 -6.025,-2.5 -1.633,-1.644 -2.45,-3.915 -2.45,-6.725 l 0,-63.3 c 0,-7.036 4.369,-9.525 8.475,-9.525 l 3.8,0 c 3.581,0 6.479,2.11 7.95,5.8 l 0.1,0.25 0.075,0.275 c 0.805,3.249 1.74,6.322 2.775,9.125 0.79,2.149 1.545,4.419 2.3,6.8 l 73.325,0 c 8.892,0 15.841,-2.998 21.275,-9.2 5.516,-6.301 8.325,-14.773 8.325,-25.15 0,-8.192 -2.756,-19.075 -26.575,-19.075 l -76.3,0 -5.175,17.375 -0.05,0.175 -0.075,0.175 c -0.556,1.391 -1.427,2.678 -2.575,3.8 -1.953,1.924 -4,2.325 -5.375,2.325 l -3.8,0 c -4.106,0 -8.475,-2.514 -8.475,-9.55 l 0,-63.6 c 0,-2.466 0.78,-4.676 2.275,-6.375 1.649,-1.871 3.787,-2.85 6.2,-2.85 l 3,0 c -3.697,-4.459 -6.724,-9.485 -9.025,-15.05 -3.302,-7.988 -4.975,-17.341 -4.975,-27.8 l 0,-15.275 c 0,-10.226 1.659,-19.58 4.95,-27.775 3.332,-8.292 8.191,-15.318 14.45,-20.925 6.196,-5.545 13.698,-9.844 22.275,-12.775 0.957,-0.328 1.937,-0.634 2.925,-0.925 -1.114,-0.285 -2.225,-0.6 -3.3,-0.925 -8.614,-2.598 -16.047,-6.555 -22.1,-11.8 -6.085,-5.265 -10.856,-11.871 -14.2,-19.625 -3.318,-7.688 -5,-16.691 -5,-26.75 0,-16.814 3.097,-31.396 9.225,-43.45 -1.684,-0.37 -3.193,-1.279 -4.425,-2.675 -1.494,-1.701 -2.275,-3.889 -2.275,-6.35 l 0,-38.175 c 0,-7.04 4.369,-9.55 8.475,-9.55 l 2.525,0 c -8.971,-10.871 -13.525,-25.894 -13.525,-44.825 l 0,-5.05 0,-9.9 7.15,6.975 c 4.711,4.589 10.962,7.58 17.6,8.425 l 3.25,0.4 0.4,3.175 c 0.982,7.754 4.262,13.698 10.05,18.15 6.756,5.204 16.552,8.009 29.15,8.325 l 0,-76.375 0,-1.3 0.75,-1.05 c 4.474,-6.396 6.825,-13.834 6.825,-21.525 0,-0.449 -0.008,-0.91 -0.025,-1.35 l -0.175,-4.3 4.375,0 9.6,0 c 10.48,0 20.1,1.364 28.55,4.025 8.616,2.72 16.041,6.85 22.1,12.325 6.062,5.474 10.835,12.354 14.175,20.425 3.302,7.998 4.975,17.349 4.975,27.8 l 0,12.075 c 0,21.502 -6.409,37.972 -19.075,48.925 -9.033,7.81 -20.583,12.808 -34.45,15 l 79.6,0 c 4.106,0 8.475,2.511 8.475,9.55 l 0,41.675 z m -62.375,162.525 0,-9.55 c 0,-10.185 -3.592,-17.839 -10.975,-23.425 -7.618,-5.763 -18.552,-8.675 -32.5,-8.675 l -16.15,0 c -13.942,0 -24.819,2.894 -32.35,8.65 -7.309,5.585 -10.875,13.254 -10.875,23.45 l 0,9.55 c 0,10.182 3.562,17.798 10.85,23.275 7.536,5.662 18.423,8.525 32.375,8.525 l 16.15,0 c 13.96,0 24.902,-2.854 32.525,-8.525 7.365,-5.478 10.95,-13.104 10.95,-23.275 z m 0,-138.675 c 0,-12.229 -3.367,-22.046 -10,-29.175 -6.631,-7.122 -15.442,-10.575 -26.925,-10.575 l -26.225,0 c -12.548,0 -22.089,3.495 -29.15,10.675 -7.096,7.214 -10.55,16.605 -10.55,28.75 0,9.549 3.507,16.874 10.725,22.35 7.442,5.654 18.215,8.5 32,8.5 l 17.15,0 c 13.803,0 24.634,-2.803 32.175,-8.375 7.272,-5.369 10.8,-12.624 10.8,-22.15 z m 0,-139.95 0,-9.225 c 0,-9.659 -2.969,-16.909 -9.05,-22.175 -6.003,-5.194 -14.902,-7.89 -26.45,-8.025 l 0,69.475 c 10.598,-0.725 19.123,-3.578 25.35,-8.475 6.829,-5.368 10.15,-12.423 10.15,-21.575 z m -64.75,-69.1 c 0,10.593 -5.087,20.017 -12.975,26.125 0.477,1.941 0.75,3.968 0.75,6.05 0,14.213 -11.825,25.725 -26.4,25.725 -14.573,0 -26.4,-11.512 -26.4,-25.725 0,-4.484 1.183,-8.705 3.25,-12.375 -4.2,-5.54 -6.675,-12.379 -6.675,-19.8 0,-7.753 2.724,-14.884 7.275,-20.55 -2.301,-3.029 -3.675,-6.79 -3.675,-10.85 0,-10.084 8.383,-18.25 18.725,-18.25 9.889,0 17.982,7.456 18.675,16.925 15.646,3.073 27.45,16.565 27.45,32.725 z m -8.375,415.4 c -5.72,-0.679 -11.101,-1.839 -16.075,-3.475 -6.687,-2.195 -12.704,-5.29 -17.975,-9.225 0.594,2.169 1.233,4.19 1.925,6 0.791,2.08 1.567,4.323 2.325,6.7 l 29.8,0 z m -5.4,-281.425 c -11.117,-1.773 -20.645,-5.406 -28.5,-10.875 0.545,1.684 1.119,3.339 1.75,4.925 0.767,1.937 1.528,3.929 2.25,5.95 l 24.5,0 z"
         id="path22"
         inkscape:connector-curvature="0" /></g></g></svg>