<?xml version="1.0" encoding="UTF-8" standalone="no"?>
<!-- Created with Inkscape (http://www.inkscape.org/) -->

<svg
   xmlns:dc="http://purl.org/dc/elements/1.1/"
   xmlns:cc="http://creativecommons.org/ns#"
   xmlns:rdf="http://www.w3.org/1999/02/22-rdf-syntax-ns#"
   xmlns:svg="http://www.w3.org/2000/svg"
   xmlns="http://www.w3.org/2000/svg"
   xmlns:sodipodi="http://sodipodi.sourceforge.net/DTD/sodipodi-0.dtd"
   xmlns:inkscape="http://www.inkscape.org/namespaces/inkscape"
   width="74"
   height="576"
   id="svg3443"
   version="1.1"
   inkscape:version="0.48.0 r9654"
   sodipodi:docname="New document 5">
  <defs
     id="defs3445">
    <filter
       color-interpolation-filters="sRGB"
       inkscape:collect="always"
       id="filter4097"
       x="-0.22624506"
       width="1.4524901"
       y="-0.25553572"
       height="1.5110714">
      <feGaussianBlur
         inkscape:collect="always"
         stdDeviation="1.490625"
         id="feGaussianBlur4099" />
    </filter>
    <filter
       color-interpolation-filters="sRGB"
       inkscape:collect="always"
       id="filter3860">
      <feGaussianBlur
         inkscape:collect="always"
         stdDeviation="1.5071875"
         id="feGaussianBlur3862" />
    </filter>
    <filter
       color-interpolation-filters="sRGB"
       inkscape:collect="always"
       id="filter4210"
       x="-0.25767481"
       width="1.5153496"
       y="-0.29713124"
       height="1.5942625">
      <feGaussianBlur
         inkscape:collect="always"
         stdDeviation="4.9521875"
         id="feGaussianBlur4212" />
    </filter>
  </defs>
  <sodipodi:namedview
     id="base"
     pagecolor="#ffffff"
     bordercolor="#666666"
     borderopacity="1.0"
     inkscape:pageopacity="0.0"
     inkscape:pageshadow="2"
     inkscape:zoom="1"
     inkscape:cx="131.8151"
     inkscape:cy="398.85609"
     inkscape:document-units="px"
     inkscape:current-layer="layer1"
     showgrid="false"
     fit-margin-top="0"
     fit-margin-left="0"
     fit-margin-right="0"
     fit-margin-bottom="0"
     inkscape:window-width="2560"
     inkscape:window-height="1523"
     inkscape:window-x="0"
     inkscape:window-y="24"
     inkscape:window-maximized="1" />
  <metadata
     id="metadata3448">
    <rdf:RDF>
      <cc:Work
         rdf:about="">
        <dc:format>image/svg+xml</dc:format>
        <dc:type
           rdf:resource="http://purl.org/dc/dcmitype/StillImage" />
        <dc:title></dc:title>
      </cc:Work>
    </rdf:RDF>
  </metadata>
  <g
     inkscape:label="Layer 1"
     inkscape:groupmode="layer"
     id="layer1"
     transform="translate(-437.28571,-404.36217)">
    <g
       transform="translate(511.28571,-72.000007)"
       id="g4632"
       inkscape:export-filename="/home/tim/Code/node-camp/examples/hexes/web/art/sprites.png"
       inkscape:export-xdpi="90"
       inkscape:export-ydpi="90">
      <path
         inkscape:connector-curvature="0"
         sodipodi:nodetypes="ccccccc"
         id="path3123"
         d="m -2e-5,828.36218 -18.99999,32 -36,0 -18.99999,-32 18.99999,-32.00003 36,0 18.99999,32.00003 z"
         style="fill:#204a87;fill-opacity:1;stroke:none" />
      <path
         inkscape:connector-curvature="0"
         id="path4148"
         d="m -48.1875,808.375 22.375,0 11.875,20 -11.875,20 -22.375,0 -11.875,-20 11.875,-20 z"
         style="font-size:medium;font-style:normal;font-variant:normal;font-weight:normal;font-stretch:normal;text-indent:0;text-align:start;text-decoration:none;line-height:normal;letter-spacing:normal;word-spacing:normal;text-transform:none;direction:ltr;block-progression:tb;writing-mode:lr-tb;text-anchor:start;color:#000000;fill:#3465a4;fill-opacity:1;stroke:none;stroke-width:24;marker:none;visibility:visible;display:inline;overflow:visible;filter:url(#filter4210);enable-background:accumulate;font-family:Andale Mono;-inkscape-font-specification:Andale Mono" />
      <path
         inkscape:connector-curvature="0"
         style="font-size:medium;font-style:normal;font-variant:normal;font-weight:normal;font-stretch:normal;text-indent:0;text-align:start;text-decoration:none;line-height:normal;letter-spacing:normal;word-spacing:normal;text-transform:none;direction:ltr;block-progression:tb;writing-mode:lr-tb;text-anchor:start;color:#000000;fill:#729fcf;fill-opacity:1;stroke:none;stroke-width:4;marker:none;visibility:visible;display:inline;overflow:visible;enable-background:accumulate;font-family:Andale Mono;-inkscape-font-specification:Andale Mono"
         d="m -55,796.36218 -19,32 19,32 36,0 19,-32 -19,-32 -36,0 z m 1.125,2 33.75,0 17.8125,30 -17.84375,30 -33.6875,0 -17.84375,-30 17.8125,-30 z"
         id="path4214" />
    </g>
    <g
       transform="translate(511.28571,-72.000007)"
       id="g4627"
       inkscape:export-filename="/home/tim/Code/node-camp/examples/hexes/web/art/sprites.png"
       inkscape:export-xdpi="90"
       inkscape:export-ydpi="90">
      <path
         inkscape:connector-curvature="0"
         style="fill:#5c3566;fill-opacity:1;stroke:none"
         d="m -2e-5,764.36218 -18.99999,32 -36,0 -18.99999,-32 18.99999,-32.00003 36,0 18.99999,32.00003 z"
         id="path4222"
         sodipodi:nodetypes="ccccccc" />
      <path
         inkscape:connector-curvature="0"
         style="font-size:medium;font-style:normal;font-variant:normal;font-weight:normal;font-stretch:normal;text-indent:0;text-align:start;text-decoration:none;line-height:normal;letter-spacing:normal;word-spacing:normal;text-transform:none;direction:ltr;block-progression:tb;writing-mode:lr-tb;text-anchor:start;color:#000000;fill:#75507b;fill-opacity:1;stroke:none;stroke-width:24;marker:none;visibility:visible;display:inline;overflow:visible;filter:url(#filter4210);enable-background:accumulate;font-family:Andale Mono;-inkscape-font-specification:Andale Mono"
         d="m -48.1875,744.375 22.375,0 11.875,20 -11.875,20 -22.375,0 -11.875,-20 11.875,-20 z"
         id="path4224" />
      <path
         inkscape:connector-curvature="0"
         id="path4226"
         d="m -55,732.36218 -19,32 19,32 36,0 19,-32 -19,-32 -36,0 z m 1.125,2 33.75,0 17.8125,30 -17.84375,30 -33.6875,0 -17.84375,-30 17.8125,-30 z"
         style="font-size:medium;font-style:normal;font-variant:normal;font-weight:normal;font-stretch:normal;text-indent:0;text-align:start;text-decoration:none;line-height:normal;letter-spacing:normal;word-spacing:normal;text-transform:none;direction:ltr;block-progression:tb;writing-mode:lr-tb;text-anchor:start;color:#000000;fill:#ad7fa8;fill-opacity:1;stroke:none;stroke-width:4;marker:none;visibility:visible;display:inline;overflow:visible;enable-background:accumulate;font-family:Andale Mono;-inkscape-font-specification:Andale Mono" />
    </g>
    <g
       transform="translate(511.28571,-72.000007)"
       id="g4642"
       inkscape:export-filename="/home/tim/Code/node-camp/examples/hexes/web/art/sprites.png"
       inkscape:export-xdpi="90"
       inkscape:export-ydpi="90">
      <path
         inkscape:connector-curvature="0"
         style="fill:#4e9a06;fill-opacity:1;stroke:none"
         d="m -2e-5,956.36218 -18.99999,32 -36,0 -18.99999,-32 18.99999,-32.00003 36,0 18.99999,32.00003 z"
         id="path4228"
         sodipodi:nodetypes="ccccccc" />
      <path
         inkscape:connector-curvature="0"
         style="font-size:medium;font-style:normal;font-variant:normal;font-weight:normal;font-stretch:normal;text-indent:0;text-align:start;text-decoration:none;line-height:normal;letter-spacing:normal;word-spacing:normal;text-transform:none;direction:ltr;block-progression:tb;writing-mode:lr-tb;text-anchor:start;color:#000000;fill:#73d216;fill-opacity:1;stroke:none;stroke-width:24;marker:none;visibility:visible;display:inline;overflow:visible;filter:url(#filter4210);enable-background:accumulate;font-family:Andale Mono;-inkscape-font-specification:Andale Mono"
         d="m -48.1875,936.375 22.375,0 11.875,20 -11.875,20 -22.375,0 -11.875,-20 11.875,-20 z"
         id="path4230" />
      <path
         inkscape:connector-curvature="0"
         id="path4232"
         d="m -55,924.36218 -19,32 19,32 36,0 19,-32 -19,-32 -36,0 z m 1.125,2 33.75,0 17.8125,30 -17.84375,30 -33.6875,0 -17.84375,-30 17.8125,-30 z"
         style="font-size:medium;font-style:normal;font-variant:normal;font-weight:normal;font-stretch:normal;text-indent:0;text-align:start;text-decoration:none;line-height:normal;letter-spacing:normal;word-spacing:normal;text-transform:none;direction:ltr;block-progression:tb;writing-mode:lr-tb;text-anchor:start;color:#000000;fill:#8ae234;fill-opacity:1;stroke:none;stroke-width:4;marker:none;visibility:visible;display:inline;overflow:visible;enable-background:accumulate;font-family:Andale Mono;-inkscape-font-specification:Andale Mono" />
    </g>
    <g
       transform="translate(511.28571,-72.000007)"
       id="g4637"
       inkscape:export-filename="/home/tim/Code/node-camp/examples/hexes/web/art/sprites.png"
       inkscape:export-xdpi="90"
       inkscape:export-ydpi="90">
      <path
         inkscape:connector-curvature="0"
         sodipodi:nodetypes="ccccccc"
         id="path4234"
         d="m -2e-5,892.36218 -18.99999,32 -36,0 -18.99999,-32 18.99999,-32.00003 36,0 18.99999,32.00003 z"
         style="fill:#ce5c00;fill-opacity:1;stroke:none" />
      <path
         inkscape:connector-curvature="0"
         id="path4236"
         d="m -48.1875,872.375 22.375,0 11.875,20 -11.875,20 -22.375,0 -11.875,-20 11.875,-20 z"
         style="font-size:medium;font-style:normal;font-variant:normal;font-weight:normal;font-stretch:normal;text-indent:0;text-align:start;text-decoration:none;line-height:normal;letter-spacing:normal;word-spacing:normal;text-transform:none;direction:ltr;block-progression:tb;writing-mode:lr-tb;text-anchor:start;color:#000000;fill:#f57900;fill-opacity:1;stroke:none;stroke-width:24;marker:none;visibility:visible;display:inline;overflow:visible;filter:url(#filter4210);enable-background:accumulate;font-family:Andale Mono;-inkscape-font-specification:Andale Mono" />
      <path
         inkscape:connector-curvature="0"
         style="font-size:medium;font-style:normal;font-variant:normal;font-weight:normal;font-stretch:normal;text-indent:0;text-align:start;text-decoration:none;line-height:normal;letter-spacing:normal;word-spacing:normal;text-transform:none;direction:ltr;block-progression:tb;writing-mode:lr-tb;text-anchor:start;color:#000000;fill:#fcaf3e;fill-opacity:1;stroke:none;stroke-width:4;marker:none;visibility:visible;display:inline;overflow:visible;enable-background:accumulate;font-family:Andale Mono;-inkscape-font-specification:Andale Mono"
         d="m -55,860.36218 -19,32 19,32 36,0 19,-32 -19,-32 -36,0 z m 1.125,2 33.75,0 17.8125,30 -17.84375,30 -33.6875,0 -17.84375,-30 17.8125,-30 z"
         id="path4238" />
    </g>
    <g
       transform="translate(511.28571,-72.000007)"
       id="g4647"
       inkscape:export-filename="/home/tim/Code/node-camp/examples/hexes/web/art/sprites.png"
       inkscape:export-xdpi="90"
       inkscape:export-ydpi="90">
      <path
         inkscape:connector-curvature="0"
         sodipodi:nodetypes="ccccccc"
         id="path4240"
         d="m -2e-5,1020.3622 -18.99999,32 -36,0 -18.99999,-32 18.99999,-32.00005 36,0 18.99999,32.00005 z"
         style="fill:#c4a000;fill-opacity:1;stroke:none" />
      <path
         inkscape:connector-curvature="0"
         id="path4242"
         d="m -48.1875,1000.375 22.375,0 11.875,20 -11.875,20 -22.375,0 -11.875,-20 11.875,-20 z"
         style="font-size:medium;font-style:normal;font-variant:normal;font-weight:normal;font-stretch:normal;text-indent:0;text-align:start;text-decoration:none;line-height:normal;letter-spacing:normal;word-spacing:normal;text-transform:none;direction:ltr;block-progression:tb;writing-mode:lr-tb;text-anchor:start;color:#000000;fill:#edd400;fill-opacity:1;stroke:none;stroke-width:24;marker:none;visibility:visible;display:inline;overflow:visible;filter:url(#filter4210);enable-background:accumulate;font-family:Andale Mono;-inkscape-font-specification:Andale Mono" />
      <path
         inkscape:connector-curvature="0"
         style="font-size:medium;font-style:normal;font-variant:normal;font-weight:normal;font-stretch:normal;text-indent:0;text-align:start;text-decoration:none;line-height:normal;letter-spacing:normal;word-spacing:normal;text-transform:none;direction:ltr;block-progression:tb;writing-mode:lr-tb;text-anchor:start;color:#000000;fill:#fce94f;fill-opacity:1;stroke:none;stroke-width:4;marker:none;visibility:visible;display:inline;overflow:visible;enable-background:accumulate;font-family:Andale Mono;-inkscape-font-specification:Andale Mono"
         d="m -55,988.36218 -19,32.00002 19,32 36,0 19,-32 -19,-32.00002 -36,0 z m 1.125,2 33.75,0 17.8125,30.00002 -17.84375,30 -33.6875,0 -17.84375,-30 17.8125,-30.00002 z"
         id="path4244" />
    </g>
    <g
       transform="translate(511.28571,-72.000007)"
       id="g4622"
       inkscape:export-filename="/home/tim/Code/node-camp/examples/hexes/web/art/sprites.png"
       inkscape:export-xdpi="90"
       inkscape:export-ydpi="90">
      <path
         inkscape:connector-curvature="0"
         style="fill:#8f5902;fill-opacity:1;stroke:none"
         d="m -2e-5,700.36218 -18.99999,32 -36,0 -18.99999,-32 18.99999,-32.00003 36,0 18.99999,32.00003 z"
         id="path4246"
         sodipodi:nodetypes="ccccccc" />
      <path
         inkscape:connector-curvature="0"
         style="font-size:medium;font-style:normal;font-variant:normal;font-weight:normal;font-stretch:normal;text-indent:0;text-align:start;text-decoration:none;line-height:normal;letter-spacing:normal;word-spacing:normal;text-transform:none;direction:ltr;block-progression:tb;writing-mode:lr-tb;text-anchor:start;color:#000000;fill:#c17d11;fill-opacity:1;stroke:none;stroke-width:24;marker:none;visibility:visible;display:inline;overflow:visible;filter:url(#filter4210);enable-background:accumulate;font-family:Andale Mono;-inkscape-font-specification:Andale Mono"
         d="m -48.1875,680.375 22.375,0 11.875,20 -11.875,20 -22.375,0 -11.875,-20 11.875,-20 z"
         id="path4248" />
      <path
         inkscape:connector-curvature="0"
         id="path4250"
         d="m -55,668.36218 -19,32 19,32 36,0 19,-32 -19,-32 -36,0 z m 1.125,2 33.75,0 17.8125,30 -17.84375,30 -33.6875,0 -17.84375,-30 17.8125,-30 z"
         style="font-size:medium;font-style:normal;font-variant:normal;font-weight:normal;font-stretch:normal;text-indent:0;text-align:start;text-decoration:none;line-height:normal;letter-spacing:normal;word-spacing:normal;text-transform:none;direction:ltr;block-progression:tb;writing-mode:lr-tb;text-anchor:start;color:#000000;fill:#e9b96e;fill-opacity:1;stroke:none;stroke-width:4;marker:none;visibility:visible;display:inline;overflow:visible;enable-background:accumulate;font-family:Andale Mono;-inkscape-font-specification:Andale Mono" />
    </g>
    <g
       transform="translate(511.28571,-72.000007)"
       id="g3166"
       inkscape:export-filename="/home/tim/Code/node-camp/examples/hexes/web/art/sprites.png"
       inkscape:export-xdpi="90"
       inkscape:export-ydpi="90">
      <path
         sodipodi:nodetypes="ccccccc"
         id="path4252"
         d="m -2e-5,636.36218 -18.99999,32 -36,0 -18.99999,-32 18.99999,-32.00003 36,0 18.99999,32.00003 z"
         style="fill:#a40000;fill-opacity:1;stroke:none"
         inkscape:connector-curvature="0" />
      <path
         id="path4254"
         d="m -48.1875,616.375 22.375,0 11.875,20 -11.875,20 -22.375,0 -11.875,-20 11.875,-20 z"
         style="font-size:medium;font-style:normal;font-variant:normal;font-weight:normal;font-stretch:normal;text-indent:0;text-align:start;text-decoration:none;line-height:normal;letter-spacing:normal;word-spacing:normal;text-transform:none;direction:ltr;block-progression:tb;writing-mode:lr-tb;text-anchor:start;color:#000000;fill:#cc0000;fill-opacity:1;stroke:none;stroke-width:24;marker:none;visibility:visible;display:inline;overflow:visible;filter:url(#filter4210);enable-background:accumulate;font-family:Andale Mono;-inkscape-font-specification:Andale Mono"
         inkscape:connector-curvature="0" />
      <path
         style="font-size:medium;font-style:normal;font-variant:normal;font-weight:normal;font-stretch:normal;text-indent:0;text-align:start;text-decoration:none;line-height:normal;letter-spacing:normal;word-spacing:normal;text-transform:none;direction:ltr;block-progression:tb;writing-mode:lr-tb;text-anchor:start;color:#000000;fill:#ef2929;fill-opacity:1;stroke:none;stroke-width:4;marker:none;visibility:visible;display:inline;overflow:visible;enable-background:accumulate;font-family:Andale Mono;-inkscape-font-specification:Andale Mono"
         d="m -55,604.36218 -19,32 19,32 36,0 19,-32 -19,-32 -36,0 z m 1.125,2 33.75,0 17.8125,30 -17.84375,30 -33.6875,0 -17.84375,-30 17.8125,-30 z"
         id="path4256"
         inkscape:connector-curvature="0" />
    </g>
    <g
       id="g3864"
       transform="translate(511.28571,-136.00001)"
       inkscape:export-filename="/home/tim/Code/node-camp/examples/hexes/web/art/sprites.png"
       inkscape:export-xdpi="90"
       inkscape:export-ydpi="90">
      <path
         inkscape:connector-curvature="0"
         id="path3866"
         transform="translate(0,572.36218)"
         d="m -55,-32 -19,32 19,32 36,0 19,-32 -19,-32 -36,0 z m 2.84375,5 30.3125,0 16.03125,27 -16.0625,27 -30.25,0 -16.0625,-27 16.03125,-27 z"
         style="opacity:0.42916667;fill:#ffffff;fill-opacity:1;stroke:none" />
      <path
         inkscape:connector-curvature="0"
         style="font-size:medium;font-style:normal;font-variant:normal;font-weight:normal;font-stretch:normal;text-indent:0;text-align:start;text-decoration:none;line-height:normal;letter-spacing:normal;word-spacing:normal;text-transform:none;direction:ltr;block-progression:tb;writing-mode:lr-tb;text-anchor:start;opacity:0.29166667;color:#000000;fill:#ffffff;fill-opacity:1;stroke:none;stroke-width:24;marker:none;visibility:visible;display:inline;overflow:visible;filter:url(#filter3860);enable-background:accumulate;font-family:Andale Mono;-inkscape-font-specification:Andale Mono"
         d="m -48.1875,552.375 22.375,0 11.875,20 -11.875,20 -22.375,0 -11.875,-20 11.875,-20 z"
         id="path3868" />
    </g>
    <path
       style="fill:#ffffff;fill-opacity:0.29752066;stroke:none;filter:url(#filter4097)"
       d="m 470.50446,493.36217 7.5625,0 4.125,7 -4.15625,7 -7.5,0 -4.15625,-7 4.125,-7 z"
       id="path3941"
       inkscape:connector-curvature="0"
       inkscape:export-filename="/home/tim/Code/node-camp/examples/hexes/web/art/sprites.png"
       inkscape:export-xdpi="90"
       inkscape:export-ydpi="90" />
  </g>
</svg>
