<?xml version="1.0" encoding="UTF-8" standalone="no"?>
<!-- Created with Inkscape (http://www.inkscape.org/) -->

<svg
   xmlns:dc="http://purl.org/dc/elements/1.1/"
   xmlns:cc="http://creativecommons.org/ns#"
   xmlns:rdf="http://www.w3.org/1999/02/22-rdf-syntax-ns#"
   xmlns:svg="http://www.w3.org/2000/svg"
   xmlns="http://www.w3.org/2000/svg"
   xmlns:sodipodi="http://sodipodi.sourceforge.net/DTD/sodipodi-0.dtd"
   xmlns:inkscape="http://www.inkscape.org/namespaces/inkscape"
   id="svg2"
   version="1.1"
   inkscape:version="0.48.0 r9654"
   width="1048.5166"
   height="246.12987"
   xml:space="preserve"
   sodipodi:docname="nodelogo.svg"><metadata
     id="metadata8"><rdf:RDF><cc:Work
         rdf:about=""><dc:format>image/svg+xml</dc:format><dc:type
           rdf:resource="http://purl.org/dc/dcmitype/StillImage" /><dc:title></dc:title></cc:Work></rdf:RDF></metadata><defs
     id="defs6"><clipPath
       clipPathUnits="userSpaceOnUse"
       id="clipPath16"><path
         d="m 0,595.276 841.89,0 L 841.89,0 0,0 0,595.276 z"
         id="path18"
         inkscape:connector-curvature="0" /></clipPath></defs><sodipodi:namedview
     pagecolor="#ffffff"
     bordercolor="#666666"
     borderopacity="1"
     objecttolerance="10"
     gridtolerance="10"
     guidetolerance="10"
     inkscape:pageopacity="0"
     inkscape:pageshadow="2"
     inkscape:window-width="2560"
     inkscape:window-height="1523"
     id="namedview4"
     showgrid="false"
     inkscape:zoom="1"
     inkscape:cx="178.78693"
     inkscape:cy="425.30628"
     inkscape:window-x="0"
     inkscape:window-y="24"
     inkscape:window-maximized="1"
     inkscape:current-layer="g10"
     fit-margin-top="0"
     fit-margin-left="0"
     fit-margin-right="0"
     fit-margin-bottom="0" /><g
     id="g10"
     inkscape:groupmode="layer"
     inkscape:label="nodelogo"
     transform="matrix(1.25,0,0,-1.25,-1.9216802,248.06496)"><g
       id="g12"
       transform="translate(-0.96575586,-380.41503)"><g
         id="g14"
         clip-path="url(#clipPath16)"><g
           id="g20"
           transform="translate(439.9961,409.8906)"><path
             d="m 0,0 c -1.937,0.767 -3.931,1.518 -5.952,2.24 l 0,24.513 C -4.179,15.636 -0.545,6.102 4.924,-1.753 3.24,-1.208 1.586,-0.631 0,0 m -41.263,42.121 c 0,-12.548 -3.489,-22.082 -10.669,-29.143 -7.214,-7.096 -16.626,-10.546 -28.771,-10.546 -9.549,0 -16.854,3.508 -22.33,10.726 -5.654,7.442 -8.521,18.206 -8.521,31.991 l 0,17.155 c 0,13.803 2.824,24.62 8.396,32.161 5.369,7.272 12.61,10.806 22.136,10.806 12.229,0 22.046,-3.362 29.175,-9.995 7.122,-6.631 10.584,-15.438 10.584,-26.921 l 0,-26.234 z m -136.769,3.531 c 0,-13.942 -2.917,-24.827 -8.673,-32.358 -5.585,-7.309 -13.254,-10.862 -23.45,-10.862 l -9.544,0 c -10.182,0 -17.793,3.546 -23.27,10.834 -5.662,7.536 -8.533,18.434 -8.533,32.386 l 0,16.145 c 0,13.96 2.874,24.906 8.545,32.529 5.478,7.365 13.087,10.945 23.258,10.945 l 9.544,0 c 10.185,0 17.852,-3.59 23.438,-10.973 5.763,-7.618 8.685,-18.553 8.685,-32.501 l 0,-16.145 z M -280.658,0.021 c -2.08,0.791 -4.324,1.576 -6.701,2.334 l 0,29.795 c 0.679,-5.72 1.826,-11.107 3.462,-16.081 2.195,-6.687 5.3,-12.707 9.235,-17.978 -2.169,0.594 -4.186,1.238 -5.996,1.93 M 37.348,95.12 c 5.368,6.829 12.427,10.151 21.579,10.151 l 9.221,0 c 9.659,0 16.916,-2.959 22.182,-9.04 5.194,-6.003 7.894,-14.895 8.029,-26.443 l -69.472,0 c 0.725,10.598 3.564,19.105 8.461,25.332 m 21.438,-96.01 -0.408,3.235 -3.182,0.4 c -7.754,0.982 -13.688,4.269 -18.14,10.057 -5.204,6.756 -7.999,16.554 -8.315,29.152 l 76.37,0 1.285,0 1.059,0.739 c 6.396,4.474 13.844,6.839 21.535,6.839 0.449,0 0.898,-0.017 1.338,-0.034 l 4.302,-0.17 0,4.374 0,9.61 c 0,10.48 -1.352,20.077 -4.013,28.527 -2.72,8.616 -6.871,16.061 -12.346,22.12 -5.474,6.062 -12.342,10.828 -20.413,14.168 -7.998,3.302 -17.348,4.976 -27.799,4.976 l -12.086,0 c -21.502,0 -37.958,-6.422 -48.911,-19.088 C 1.252,104.982 -3.76,93.431 -5.952,79.564 l 0,79.606 c 0,4.106 -2.507,8.493 -9.546,8.493 l -41.668,0 c -7.037,0 -9.544,-4.387 -9.544,-8.493 l 0,-4.035 c 0,-1.445 0.435,-3.557 2.492,-5.403 1.111,-1.011 2.342,-1.786 3.651,-2.304 l 0.163,-0.063 0.168,-0.051 c 3.418,-1.017 6.878,-2.072 10.28,-3.136 2.414,-0.756 4.9,-1.518 7.42,-2.278 l 0,-17.874 c -5.154,2.613 -10.806,4.649 -16.883,6.069 -8.538,1.997 -17.091,3.008 -25.419,3.008 -10.047,0 -19.092,-1.681 -26.886,-4.993 -7.863,-3.347 -14.574,-8.169 -19.945,-14.333 -5.341,-6.127 -9.424,-13.593 -12.135,-22.191 -0.316,-1.004 -0.612,-2.027 -0.891,-3.063 -0.295,1.053 -0.607,2.093 -0.942,3.113 -2.834,8.613 -7.155,16.095 -12.845,22.237 -5.692,6.138 -12.715,10.934 -20.87,14.261 -8.094,3.296 -17.495,4.969 -27.94,4.969 l -15.269,0 c -10.459,0 -19.81,-1.675 -27.798,-4.978 -8.053,-3.331 -15.016,-8.125 -20.696,-14.254 -5.694,-6.14 -10.015,-13.622 -12.842,-22.235 -1.636,-4.976 -2.783,-10.361 -3.462,-16.084 l 0,6.426 c 0,16.198 -4.3,28.897 -12.783,37.747 -8.513,8.877 -21.443,13.378 -38.429,13.378 -8.296,0 -16.396,-0.837 -24.076,-2.487 -5.494,-1.183 -10.609,-2.935 -15.279,-5.231 -0.422,1.102 -1.083,2.112 -1.97,2.994 -1.646,1.629 -3.902,2.455 -6.703,2.455 l -41.667,0 c -2.813,0 -5.071,-0.829 -6.705,-2.455 -1.65,-1.636 -2.522,-3.724 -2.522,-6.038 l 0,-3.783 c 0,-1.446 0.435,-3.557 2.489,-5.404 1.006,-0.915 1.962,-1.607 2.922,-2.114 l 0.308,-0.163 0.329,-0.105 c 3.612,-1.183 7.116,-2.319 10.51,-3.412 2.403,-0.777 4.847,-1.501 7.296,-2.163 l 0,-103.025 -17.336,-4.943 -0.198,-0.054 -0.192,-0.077 c -3.692,-1.469 -5.809,-4.367 -5.809,-7.951 l 0,-3.784 c 0,-2.322 0.872,-4.411 2.512,-6.033 1.644,-1.633 3.902,-2.46 6.712,-2.46 l 63.298,0 c 7.036,0 9.542,4.387 9.542,8.493 l 0,3.784 c 0,3.581 -2.114,6.477 -5.804,7.948 l -0.26,0.104 -0.272,0.068 c -3.249,0.805 -6.313,1.737 -9.116,2.772 -2.149,0.79 -4.432,1.566 -6.813,2.321 l 0,73.311 c 0,8.892 3.017,15.852 9.219,21.286 6.301,5.516 14.756,8.316 25.133,8.316 8.192,0 19.082,-2.755 19.082,-26.574 l 0,-76.309 -17.382,-5.174 -0.177,-0.05 -0.172,-0.068 c -1.391,-0.556 -2.674,-1.429 -3.796,-2.577 -1.924,-1.953 -2.327,-3.999 -2.327,-5.374 l 0,-3.784 c 0,-4.106 2.506,-8.493 9.542,-8.493 l 63.615,0 c 2.466,0 4.668,0.792 6.367,2.287 1.871,1.649 2.859,3.793 2.859,6.206 l 0,2.994 c 4.459,-3.697 9.488,-6.733 15.053,-9.034 7.988,-3.302 17.339,-4.977 27.798,-4.977 l 15.269,0 c 10.226,0 19.567,1.672 27.762,4.963 8.292,3.332 15.336,8.192 20.943,14.451 5.545,6.196 9.844,13.687 12.775,22.264 0.328,0.957 0.629,1.934 0.92,2.922 0.285,-1.114 0.588,-2.208 0.913,-3.283 2.598,-8.614 6.576,-16.049 11.821,-22.102 5.265,-6.085 11.866,-10.869 19.62,-14.213 7.688,-3.318 16.687,-5.002 26.746,-5.002 16.814,0 31.393,3.1 43.447,9.228 0.37,-1.684 1.275,-3.188 2.671,-4.42 1.701,-1.494 3.903,-2.285 6.364,-2.285 l 38.168,0 c 7.04,0 9.546,4.387 9.546,8.493 l 0,2.511 c 10.871,-8.971 25.909,-13.525 44.84,-13.525 l 5.028,0 9.916,0 -6.977,7.161 c -4.589,4.711 -7.58,10.963 -8.425,17.601"
             style="fill:#959699;fill-opacity:1;fill-rule:nonzero;stroke:none"
             id="path22"
             inkscape:connector-curvature="0" /></g><g
           id="g24"
           transform="translate(600.7451,422.9751)"><path
             d="m 0,0 c -3.073,15.646 -16.546,27.432 -32.706,27.432 -10.593,0 -20.03,-5.073 -26.138,-12.961 -1.941,0.477 -3.962,0.739 -6.044,0.739 -14.213,0 -25.73,-11.819 -25.73,-26.394 0,-14.573 11.517,-26.392 25.73,-26.392 4.484,0 8.699,1.18 12.369,3.247 5.54,-4.2 12.392,-6.683 19.813,-6.683 7.753,0 14.881,2.718 20.547,7.269 3.029,-2.301 6.778,-3.663 10.838,-3.663 10.084,0 18.261,8.391 18.261,18.733 C 16.94,-8.784 9.469,-0.693 0,0"
             style="fill:#959699;fill-opacity:1;fill-rule:nonzero;stroke:none"
             id="path26"
             inkscape:connector-curvature="0" /></g><g
           id="g28"
           transform="translate(774.6084,382.3003)"><path
             d="m 0,0 c -14.531,0 -27.306,1.177 -37.964,3.495 -7.918,1.718 -15.191,4.461 -21.679,8.17 -0.114,-0.408 -0.22,-0.822 -0.32,-1.244 l -0.056,-0.244 c -0.052,-0.228 -0.127,-0.451 -0.22,-0.665 L -60.348,9.265 C -61.373,6.908 -63.184,4.97 -65.573,3.672 -67.672,2.545 -69.846,1.975 -72.049,1.975 l -4.486,0 c -9.054,0 -12.268,5.914 -12.268,10.979 l 0,54.152 c 0,5.065 3.214,10.981 12.268,10.981 l 16.754,-0.249 c 8.968,0 12.166,-5.916 12.166,-10.981 l 0,-7.66 c 0,-7.94 3.379,-13.789 10.635,-18.408 8.014,-5.116 19.165,-7.706 33.136,-7.706 9.241,0 16.204,1.824 20.693,5.419 4.168,3.337 6.107,7.866 6.107,14.264 l 0,10.135 c 0,3.365 -0.759,5.826 -2.39,7.743 -2.002,2.347 -4.757,4.325 -8.184,5.874 -3.89,1.758 -8.463,3.182 -13.601,4.232 -5.623,1.14 -11.505,2.203 -17.478,3.158 -7.014,1.145 -14.517,2.489 -22.312,3.996 -8.234,1.585 -15.799,4.02 -22.485,7.225 -7.261,3.668 -13.116,8.587 -17.474,14.651 -4.56,6.336 -6.875,14.523 -6.875,24.335 l 0,12.365 c 0,15.584 6.391,28.079 18.995,37.137 11.917,8.565 27.757,12.908 47.076,12.908 11.979,0 23.543,-1.264 34.365,-3.76 7.862,-1.816 15.072,-4.335 21.489,-7.499 0.121,0.396 0.235,0.782 0.345,1.162 l 0.057,0.199 c 0.046,0.151 0.1,0.297 0.163,0.442 l 0.073,0.17 c 1.012,2.357 2.831,4.309 5.242,5.614 2.072,1.125 4.248,1.694 6.469,1.694 l 4.483,0 c 9.057,0 12.271,-5.913 12.271,-10.978 l 0,-53.657 c 0,-4.951 -3.214,-10.731 -12.271,-10.731 l -16.432,0.246 c -2.79,0 -5.458,0.809 -7.658,2.339 -2.865,1.984 -4.511,5.044 -4.511,8.393 l 0,7.913 c 0,8.14 -3.096,13.966 -9.75,18.336 -7.365,4.829 -17.841,7.279 -31.136,7.279 -8.648,0 -15.32,-1.766 -19.827,-5.248 -4.101,-3.169 -6.011,-7.205 -6.011,-12.704 l 0,-10.381 c 0,-2.828 0.635,-4.872 2.005,-6.431 1.742,-1.999 4.233,-3.678 7.421,-5.004 3.713,-1.543 8.164,-2.824 13.232,-3.802 5.416,-1.045 11.111,-1.981 16.928,-2.782 7.597,-1.174 15.396,-2.519 23.244,-4.009 8.405,-1.602 16.191,-4.233 23.149,-7.812 7.308,-3.763 13.328,-8.806 17.894,-14.99 4.81,-6.529 7.246,-15.073 7.246,-25.396 l 0,-13.354 C 66.708,35.411 60.399,22.436 47.954,13.213 36.123,4.447 19.987,0 0,0"
             style="fill:#79b955;fill-opacity:1;fill-rule:nonzero;stroke:none"
             id="path30"
             inkscape:connector-curvature="0" /></g><g
           id="g32"
           transform="translate(774.6084,386.0225)"><path
             d="m 0,0 c -14.255,0 -26.763,1.147 -37.174,3.411 -9.151,1.985 -17.343,5.38 -24.413,10.112 -0.179,-0.459 -0.36,-0.91 -0.537,-1.35 -0.585,-1.423 -1.074,-2.978 -1.462,-4.618 l -0.06,-0.264 -0.11,-0.249 c -0.705,-1.621 -1.914,-2.909 -3.591,-3.82 -1.544,-0.829 -3.122,-1.246 -4.705,-1.246 l -4.483,0 c -7.927,0 -8.545,5.554 -8.545,7.256 l 0,54.153 c 0,1.701 0.618,7.256 8.545,7.256 l 16.698,-0.248 c 7.884,0 8.5,-5.554 8.5,-7.257 l 0,-7.663 c 0,-9.203 4.042,-16.249 12.355,-21.547 8.623,-5.498 20.445,-8.288 35.141,-8.288 10.106,0 17.852,2.1 23.019,6.24 5.048,4.038 7.501,9.651 7.501,17.165 l 0,10.137 c 0,4.242 -1.075,7.565 -3.28,10.156 -2.363,2.772 -5.554,5.077 -9.483,6.851 -4.145,1.871 -8.981,3.381 -14.389,4.486 -5.646,1.146 -11.579,2.22 -17.637,3.187 -6.953,1.138 -14.418,2.474 -22.193,3.974 -7.921,1.53 -15.181,3.861 -21.579,6.93 -6.672,3.371 -12.057,7.892 -16.063,13.467 -4.096,5.69 -6.175,13.147 -6.175,22.162 l 0,12.364 c 0,14.318 5.869,25.796 17.446,34.116 11.275,8.102 26.381,12.207 44.899,12.207 11.703,0 22.982,-1.234 33.532,-3.664 9.212,-2.128 17.425,-5.226 24.482,-9.222 0.129,0.346 0.25,0.689 0.368,1.038 0.504,1.5 0.98,2.997 1.397,4.442 l 0.053,0.18 0.075,0.171 c 0.7,1.629 1.912,2.918 3.603,3.834 1.528,0.827 3.108,1.244 4.696,1.244 l 4.485,0 c 7.93,0 8.546,-5.556 8.546,-7.257 l 0,-53.657 c 0,-1.644 -0.616,-7.008 -8.546,-7.008 l -16.378,0.247 c -2.097,0 -3.992,0.562 -5.589,1.675 -1.873,1.294 -2.913,3.192 -2.913,5.334 l 0,7.913 c 0,9.381 -3.737,16.395 -11.427,21.446 -7.983,5.235 -19.148,7.892 -33.18,7.892 -9.491,0 -16.929,-2.027 -22.103,-6.025 -5.021,-3.877 -7.46,-8.996 -7.46,-15.649 l 0,-10.384 c 0,-3.732 0.958,-6.637 2.931,-8.886 2.12,-2.431 5.077,-4.441 8.785,-5.982 3.962,-1.647 8.656,-2.998 13.959,-4.021 5.441,-1.052 11.202,-1.999 17.125,-2.816 7.537,-1.166 15.275,-2.501 23.058,-3.979 8.048,-1.534 15.498,-4.045 22.141,-7.465 6.795,-3.5 12.382,-8.173 16.604,-13.892 4.323,-5.869 6.516,-13.671 6.516,-23.183 l 0,-13.355 C 62.985,32.933 57.184,20.964 45.739,12.483 34.56,4.199 19.173,0 0,0"
             style="fill:#c0d848;fill-opacity:1;fill-rule:nonzero;stroke:none"
             id="path34"
             inkscape:connector-curvature="0" /></g><g
           id="g36"
           transform="translate(623.1846,384.604)"><path
             d="m 0,0 c -1.481,0 -2.836,0.88 -3.425,2.254 -0.623,1.455 -0.257,3.146 0.909,4.214 3.953,3.62 6.224,8.79 6.224,14.183 0,3.45 -0.938,6.85 -2.712,9.834 -0.536,0.901 -0.667,1.987 -0.359,2.99 0.305,1.002 1.023,1.83 1.97,2.277 1.248,0.589 2.261,1.275 3.01,2.039 2.611,2.67 3.991,7.749 3.991,14.688 l 0,111.366 c -2.544,0.623 -5.031,1.257 -7.422,1.887 -4.127,1.092 -8.177,2.121 -12.033,3.055 -0.042,0.011 -0.179,0.05 -0.22,0.061 -5.243,1.461 -8.502,5.476 -8.502,10.478 l 0,3.956 c 0,5.065 3.211,10.981 12.267,10.981 l 68.21,0 c 3.531,0 6.42,-1.06 8.595,-3.15 2.195,-2.128 3.349,-4.832 3.349,-7.831 l 0,-3.956 c 0,-1.754 -0.449,-3.486 -1.376,-5.298 -0.916,-1.751 -2.74,-4.031 -6.307,-5.128 l -14.088,-4.241 0,-114.402 C 52.081,33.909 46.858,21.195 36.559,12.46 28.076,5.277 15.864,1.089 0.254,0.008 0.169,0.002 0.084,0 0,0"
             style="fill:#79b955;fill-opacity:1;fill-rule:nonzero;stroke:none"
             id="path38"
             inkscape:connector-curvature="0" /></g><g
           id="g40"
           transform="translate(691.1055,573.0352)"><path
             d="m 0,0 c -1.453,1.401 -3.478,2.108 -6.015,2.108 l -68.205,0 c -7.932,0 -8.548,-5.552 -8.548,-7.257 l 0,-3.956 c 0,-3.353 2.104,-5.868 5.778,-6.893 l 0.051,-0.014 0.048,-0.013 c 3.895,-0.947 7.969,-1.981 12.111,-3.075 3.264,-0.864 6.681,-1.718 10.193,-2.553 l 0,-114.299 c 0,-8.042 -1.704,-13.862 -5.058,-17.294 -1.1,-1.122 -2.479,-2.044 -4.082,-2.8 2.041,-3.432 3.234,-7.44 3.234,-11.734 0,-6.717 -2.867,-12.75 -7.431,-16.929 14.793,1.025 26.269,4.9 34.155,11.579 9.425,7.992 14.206,19.752 14.206,34.955 l 0,117.17 16.718,5.031 c 2.346,0.723 3.512,2.169 4.084,3.265 0.655,1.275 0.972,2.453 0.972,3.604 l 0,3.956 C 2.211,-3.182 1.447,-1.403 0,0"
             style="fill:#c0d848;fill-opacity:1;fill-rule:nonzero;stroke:none"
             id="path42"
             inkscape:connector-curvature="0" /></g></g></g></g></svg>